<svg width="14" height="15" viewBox="0 0 14 15" fill="none" xmlns="http://www.w3.org/2000/svg">
<path fill-rule="evenodd" clip-rule="evenodd" d="M0.489301 14.2417C0.879821 14.6322 1.51298 14.6322 1.9035 14.2417L7.04116 9.10403L12.0363 14.0992C12.4294 14.4923 13.0626 14.4882 13.4505 14.09C13.8384 13.6918 13.8343 13.0503 13.4412 12.6572L8.46456 7.68063L13.2171 2.92811C13.6076 2.53759 13.6076 1.90444 13.2171 1.51392C12.8266 1.1234 12.1934 1.1234 11.8029 1.51392L7.05037 6.26643L2.05296 1.26903C1.65987 0.875932 1.02672 0.880059 0.63878 1.27825C0.250843 1.67644 0.255026 2.3179 0.648122 2.71099L5.62696 7.68984L0.489301 12.8275C0.0987811 13.218 0.0987811 13.8512 0.489301 14.2417Z" fill="#00BB84"/>
</svg>
